<svg width="10" height="12" viewBox="0 0 10 12" fill="none" xmlns="http://www.w3.org/2000/svg">
<path d="M4.375 11C4.375 11.3452 4.65482 11.625 5 11.625C5.34518 11.625 5.625 11.3452 5.625 11L4.375 11ZM5.44194 0.558058C5.19786 0.313981 4.80214 0.313981 4.55806 0.558058L0.580582 4.53553C0.336505 4.77961 0.336505 5.17534 0.580582 5.41942C0.82466 5.6635 1.22039 5.6635 1.46447 5.41942L5 1.88388L8.53553 5.41942C8.77961 5.66349 9.17534 5.66349 9.41942 5.41942C9.66349 5.17534 9.66349 4.77961 9.41942 4.53553L5.44194 0.558058ZM5.625 11L5.625 1L4.375 1L4.375 11L5.625 11Z" fill="#202223"/>
</svg>
