<svg width="10" height="12" viewBox="0 0 10 12" fill="none" xmlns="http://www.w3.org/2000/svg">
<path d="M5.625 1C5.625 0.654822 5.34518 0.375 5 0.375C4.65482 0.375 4.375 0.654822 4.375 1L5.625 1ZM4.55806 11.4419C4.80214 11.686 5.19786 11.686 5.44194 11.4419L9.41942 7.46447C9.6635 7.22039 9.6635 6.82466 9.41942 6.58058C9.17534 6.3365 8.77961 6.3365 8.53553 6.58058L5 10.1161L1.46447 6.58058C1.22039 6.3365 0.82466 6.3365 0.580583 6.58058C0.336505 6.82466 0.336505 7.22039 0.580583 7.46447L4.55806 11.4419ZM4.375 1L4.375 11L5.625 11L5.625 1L4.375 1Z" fill="#202223"/>
</svg>
