<svg width="24" height="24" viewBox="0 0 24 24" fill="none" xmlns="http://www.w3.org/2000/svg">
<rect width="24" height="24" rx="2" fill="#EDEDF6"/>
<path d="M12.0003 4C11.694 4 11.4457 4.24827 11.4457 4.55458V15.2335L9.54978 13.3376C9.33375 13.1215 8.9823 13.1215 8.76627 13.3376C8.55024 13.5536 8.55024 13.905 8.76627 14.1211L11.6069 16.9617C11.7133 17.0681 11.8552 17.1229 11.997 17.1229C12.1389 17.1229 12.2808 17.0681 12.3872 16.9617L15.2278 14.1211C15.4438 13.905 15.4438 13.5536 15.2278 13.3376C15.0118 13.1215 14.6603 13.1215 14.4443 13.3376L12.5484 15.2335V4.55135C12.5516 4.24505 12.3066 4 12.0003 4Z" fill="#5556A6"/>
<path d="M19 19.2477V16.0331C19 15.7268 18.7517 15.4785 18.4454 15.4785C18.1391 15.4785 17.8908 15.7268 17.8908 16.0331V18.6964H6.10594V16.0331C6.10594 15.7268 5.85767 15.4785 5.55458 15.4785C5.2515 15.4785 5 15.7268 5 16.0331V19.2477C5 19.554 5.24827 19.7991 5.55458 19.7991H18.4454C18.7517 19.7991 19 19.554 19 19.2477Z" fill="#5556A6"/>
</svg>
