<svg width="24" height="24" viewBox="0 0 24 24" fill="none" xmlns="http://www.w3.org/2000/svg">
<path fill-rule="evenodd" clip-rule="evenodd" d="M12 3.75C7.44365 3.75 3.75 7.44365 3.75 12C3.75 16.5563 7.44365 20.25 12 20.25C16.5563 20.25 20.25 16.5563 20.25 12C20.25 7.44365 16.5563 3.75 12 3.75ZM2.25 12C2.25 6.61522 6.61522 2.25 12 2.25C17.3848 2.25 21.75 6.61522 21.75 12C21.75 17.3848 17.3848 21.75 12 21.75C6.61522 21.75 2.25 17.3848 2.25 12ZM12 11.25C12.4142 11.25 12.75 11.5858 12.75 12V15.5C12.75 15.9142 12.4142 16.25 12 16.25C11.5858 16.25 11.25 15.9142 11.25 15.5V12C11.25 11.5858 11.5858 11.25 12 11.25ZM12 8C11.4477 8 11 8.44772 11 9C11 9.55228 11.4477 10 12 10H12.01C12.5623 10 13.01 9.55228 13.01 9C13.01 8.44772 12.5623 8 12.01 8H12Z" fill="#5556A6"/>
</svg>
