<svg width="18" height="20" viewBox="0 0 18 20" fill="none" xmlns="http://www.w3.org/2000/svg">
<path d="M8.58203 0.058609C8.03125 0.207047 7.60547 0.60939 7.41406 1.15236C7.36328 1.29689 7.33984 1.53127 7.32422 2.04298L7.30078 2.7422L6.96875 2.87111C6.21094 3.16017 5.5625 3.56642 5.00781 4.09377C4.28516 4.78517 3.78125 5.57033 3.47656 6.4883C3.21094 7.28127 3.21094 7.28517 3.17969 9.47267C3.14844 11.5625 3.13281 11.7617 2.94531 12.4414C2.83594 12.8242 2.73828 13.0703 2.51953 13.5078C2.23828 14.0664 1.89062 14.5274 1.35938 15.0586C0.753906 15.6602 0.699219 15.7617 0.699219 16.25C0.699219 16.5625 0.714844 16.6485 0.789062 16.7891C0.925781 17.0469 1.13281 17.2539 1.375 17.3711L1.59766 17.4805L3.85156 17.4922L6.10938 17.5039L6.13281 17.6094C6.25781 18.1875 6.48828 18.6406 6.83984 19.0195C7.39453 19.625 8.02734 19.9336 8.82031 19.9883C9.67578 20.0469 10.4297 19.75 11.0703 19.1055C11.5078 18.6641 11.7266 18.2539 11.8672 17.6094L11.8906 17.5039L14.1484 17.4922L16.4023 17.4805L16.625 17.3711C16.8672 17.2539 17.0742 17.0469 17.2109 16.7891C17.2852 16.6485 17.3008 16.5625 17.3008 16.25C17.3008 15.7578 17.2422 15.6563 16.6406 15.0586C15.8359 14.2578 15.3438 13.4453 15.0508 12.4336C14.8711 11.8047 14.8516 11.5547 14.8203 9.47267C14.7891 7.28908 14.7852 7.28127 14.5273 6.50002C14.2227 5.57814 13.7148 4.78127 12.9922 4.09377C12.4375 3.56642 11.7891 3.16017 11.0312 2.87111L10.6992 2.7422L10.6758 2.04298C10.6562 1.48048 10.6367 1.3047 10.5742 1.12502C10.2695 0.29689 9.41016 -0.164047 8.58203 0.058609ZM9.40234 0.945328C9.49219 0.996109 9.61719 1.10939 9.68359 1.20314C9.80078 1.37111 9.80078 1.37892 9.8125 1.94533L9.82422 2.51955H9.00391H8.17969V2.00002C8.17969 1.62111 8.19531 1.44142 8.23828 1.33595C8.42969 0.882828 8.96484 0.70314 9.40234 0.945328ZM9.90625 3.42189C11.6914 3.76173 13.1758 5.0508 13.7422 6.75783C13.9648 7.43361 13.9688 7.4883 14 9.62892C14.0273 11.7656 14.043 11.9453 14.2617 12.6953C14.5938 13.8399 15.3047 14.9961 16.1289 15.7266C16.5 16.0586 16.5664 16.207 16.4375 16.4492C16.3125 16.6953 16.7852 16.6797 9 16.6797C1.21484 16.6797 1.6875 16.6953 1.5625 16.4492C1.43359 16.207 1.5 16.0586 1.87109 15.7266C2.69531 14.9961 3.40625 13.8399 3.73828 12.6953C3.95312 11.9492 3.96875 11.7656 4 9.62892C4.03125 7.4922 4.03516 7.4297 4.25781 6.75783C4.64062 5.60548 5.48828 4.58205 6.57031 3.96877C7.09375 3.67189 7.8125 3.44142 8.46094 3.35939C8.82422 3.31642 9.49219 3.34377 9.90625 3.42189ZM11.0156 17.6055C10.9609 17.8399 10.7227 18.2735 10.5391 18.4727C10.1367 18.918 9.62891 19.1445 9.01953 19.1524C8.41016 19.1563 7.87891 18.9258 7.47656 18.4883C7.28125 18.2735 7.04297 17.8477 6.98438 17.6055L6.96094 17.5H9H11.0391L11.0156 17.6055Z" fill="#202223"/>
</svg>
