<svg width="25" height="24" viewBox="0 0 25 24" fill="none" xmlns="http://www.w3.org/2000/svg">
<path d="M3.44434 3H4.61988C4.8413 3 4.95201 3 5.0411 3.04072C5.11961 3.0766 5.18615 3.1343 5.23277 3.20695C5.28568 3.28939 5.30133 3.39899 5.33265 3.61818L5.75862 6.6M5.75862 6.6L6.70532 13.5583C6.82546 14.4413 6.88553 14.8828 7.09663 15.2151C7.28264 15.508 7.54931 15.7408 7.86455 15.8856C8.22231 16.05 8.66789 16.05 9.55903 16.05H17.2611C18.1094 16.05 18.5336 16.05 18.8802 15.8974C19.1858 15.7628 19.448 15.5459 19.6374 15.2708C19.8522 14.9589 19.9315 14.5422 20.0903 13.7089L21.2815 7.45472C21.3374 7.16143 21.3653 7.01478 21.3248 6.90015C21.2893 6.79959 21.2193 6.71492 21.1271 6.66122C21.0221 6.6 20.8728 6.6 20.5742 6.6H5.75862ZM13.4443 9.5V11M13.4443 11V12.5M13.4443 11H14.9443M13.4443 11H11.9443M7.86455 15.8974L6.94434 17V18H17.4443H18.4443M10.6443 20.1C10.6443 20.5971 10.2414 21 9.74434 21C9.24728 21 8.84434 20.5971 8.84434 20.1C8.84434 19.6029 9.24728 19.2 9.74434 19.2C10.2414 19.2 10.6443 19.6029 10.6443 20.1ZM17.8443 20.1C17.8443 20.5971 17.4414 21 16.9443 21C16.4473 21 16.0443 20.5971 16.0443 20.1C16.0443 19.6029 16.4473 19.2 16.9443 19.2C17.4414 19.2 17.8443 19.6029 17.8443 20.1Z" stroke="#202223" stroke-linecap="round" stroke-linejoin="round"/>
</svg>
