<svg width="20" height="20" viewBox="0 0 20 20" fill="none" xmlns="http://www.w3.org/2000/svg">
<path d="M11.6336 2.02377C11.5544 2.04723 11.4136 2.10002 11.3257 2.14694C11.2377 2.19092 9.67174 3.09706 7.8448 4.15862L4.52817 6.09112H3.84197C3.09126 6.09112 2.96809 6.10871 2.68951 6.26707C2.36987 6.44888 2.09715 6.83597 2.0297 7.20253C1.99158 7.41367 1.98865 15.6305 2.0297 15.868C2.11768 16.4164 2.58394 16.8826 3.13231 16.9706C3.24081 16.9882 5.54867 16.9999 9.18495 16.9999C15.6423 16.9999 15.2992 17.0087 15.6247 16.8211C15.9208 16.6539 16.1379 16.387 16.2698 16.0439C16.3167 15.9149 16.3226 15.7712 16.3343 14.7097L16.3461 13.5191L16.4458 13.4692C16.61 13.393 16.8299 13.1643 16.9179 12.9854L17 12.8212V11.5455V10.2699L16.9208 10.1027C16.8299 9.90627 16.6364 9.701 16.4663 9.62182L16.3461 9.5661L16.3343 8.37845C16.3197 7.11749 16.3167 7.09403 16.1672 6.79785C16.0821 6.63363 15.8006 6.35797 15.6188 6.2612C15.5396 6.21721 15.3813 6.15857 15.2698 6.12924L15.0675 6.07646L14.0763 4.34629C13.0822 2.6044 12.9444 2.3962 12.6922 2.22318C12.4077 2.0267 11.9503 1.94166 11.6336 2.02377ZM12.2201 2.73636C12.3374 2.79208 12.5368 2.98562 12.5074 3.01495C12.4928 3.02668 11.3022 3.72168 9.85648 4.5633L7.23192 6.09112H6.57504C6.17622 6.09112 5.9299 6.07939 5.94749 6.06473C6.00907 6.00314 11.6365 2.74516 11.7479 2.70411C11.8858 2.65425 12.0734 2.66598 12.2201 2.73636ZM13.0353 3.90056L13.1995 4.18501L13.135 4.22606C13.0998 4.24952 12.3638 4.67766 11.5016 5.17912L9.93566 6.09112H9.27585C8.91516 6.09112 8.62778 6.08232 8.63951 6.07059C8.6659 6.0442 12.8623 3.59851 12.8681 3.60731C12.8711 3.61024 12.9444 3.7422 13.0353 3.90056ZM13.9033 5.41958C14.0998 5.75975 14.2581 6.05006 14.2581 6.06473C14.2581 6.07939 13.6247 6.09112 12.786 6.09112C11.9767 6.09112 11.3227 6.08232 11.3345 6.07352C11.3638 6.04127 13.5045 4.80083 13.5279 4.80083C13.5397 4.80083 13.7098 5.07941 13.9033 5.41958ZM15.1701 6.80078C15.3226 6.84476 15.5132 7.01485 15.5807 7.15854C15.6305 7.26997 15.6364 7.37261 15.6364 8.38432V9.49279H14.5455C13.9268 9.49279 13.3696 9.50745 13.264 9.52505C12.528 9.64235 11.8887 10.1995 11.657 10.9209C11.311 12.0089 11.9297 13.1672 13.0412 13.5074C13.2699 13.5777 13.3051 13.5777 14.4575 13.5924L15.6364 13.6041V14.7097C15.6364 15.8123 15.6364 15.8181 15.569 15.9472C15.478 16.1173 15.2962 16.2551 15.1027 16.2932C14.9913 16.3167 13.2288 16.3255 9.06765 16.3196C3.39624 16.3108 3.1851 16.3079 3.08539 16.2551C2.9417 16.1788 2.82734 16.0674 2.75402 15.9296L2.68951 15.8123V11.5455C2.68951 7.41367 2.69244 7.27584 2.74523 7.16734C2.81854 7.01778 2.95343 6.88582 3.10006 6.82131C3.21149 6.76852 3.46662 6.76559 9.13803 6.76559C13.5485 6.76559 15.088 6.77439 15.1701 6.80078ZM16.1027 10.2054C16.1584 10.2259 16.2317 10.2787 16.2639 10.3227C16.3226 10.4048 16.3255 10.4341 16.3255 11.5279C16.3255 12.4575 16.3167 12.6657 16.2815 12.7302C16.1965 12.8945 16.1965 12.8945 14.7303 12.8945C13.2347 12.8945 13.1936 12.8886 12.8828 12.6921C12.1409 12.2141 12.0295 11.1966 12.6541 10.5719C12.8271 10.3989 13.1555 10.2318 13.3843 10.1966C13.6511 10.1585 15.9883 10.1643 16.1027 10.2054Z" fill="#202223"/>
</svg>
