<svg width="512" height="512" viewBox="0 0 512 512" fill="none" xmlns="http://www.w3.org/2000/svg">
<g clip-path="url(#clip0_1472_19142)">
<path d="M15 15H67.415C73.5716 14.9999 79.5791 16.894 84.6223 20.4252C89.6656 23.9564 93.5002 28.9537 95.606 34.739L222.762 380.602" stroke="black" stroke-width="30" stroke-miterlimit="10" stroke-linecap="round" stroke-linejoin="round"/>
<path d="M243.283 496.984C276.42 496.984 303.283 470.121 303.283 436.984C303.283 403.847 276.42 376.984 243.283 376.984C210.146 376.984 183.283 403.847 183.283 436.984C183.283 470.121 210.146 496.984 243.283 496.984Z" stroke="black" stroke-width="30" stroke-miterlimit="10" stroke-linecap="round" stroke-linejoin="round"/>
<path d="M497 344.638L299.665 416.462L197.059 134.555L366.203 72.991L468.809 354.899M417.506 213.945L248.362 275.509M288.057 165.285L316.247 155.024M339.36 306.239L367.55 295.978M161.198 211.457C181.233 266.503 125.824 289.695 145.859 344.741L186.901 457.504" stroke="black" stroke-width="30" stroke-miterlimit="10" stroke-linecap="round" stroke-linejoin="round"/>
</g>
<defs>
<clipPath id="clip0_1472_19142">
<rect width="512" height="512" fill="white"/>
</clipPath>
</defs>
</svg>
