<svg width="24" height="24" viewBox="0 0 24 24" fill="none" xmlns="http://www.w3.org/2000/svg">
<path d="M18.9006 16.7606C18.6936 15.7233 17.9385 15.2982 17.5069 15.1372C17.4998 15.1346 17.4926 15.1322 17.4854 15.13L14.7675 14.3284L13.92 13.7552V13.2259C15.2867 12.5114 16.21 11.0808 16.21 9.43744V9.37793C16.9116 9.24829 17.4396 8.70465 17.4396 8.05543C17.4396 7.70292 17.2838 7.38156 17.0292 7.14067V4.36051C17.0292 2.81707 15.6319 1.63621 14.1024 1.90644C12.0248 0.349164 9.0356 0.841715 7.58596 3.05147C7.53909 3.12297 7.52252 3.21016 7.53991 3.29387C7.5573 3.37758 7.60722 3.45095 7.67869 3.49787C7.75019 3.54474 7.83738 3.56129 7.92108 3.54391C8.00479 3.52652 8.07817 3.47661 8.12509 3.40514C8.84817 2.30278 10.0656 1.64471 11.3817 1.64471C12.2791 1.64471 13.1224 1.94171 13.8203 2.50353C13.8589 2.53453 13.904 2.55626 13.9522 2.56703C14.0005 2.5778 14.0506 2.57734 14.0986 2.56566C15.2679 2.28151 16.3845 3.17058 16.3845 4.36051V6.77488C16.3192 6.75557 16.2529 6.74014 16.1857 6.72869C16.1376 6.51621 16.0116 6.33204 15.9167 6.25792L14.5765 5.21451C14.2467 4.95778 13.8214 4.92026 13.5383 5.04896C10.2913 6.30412 8.34531 6.30411 8.24871 6.31795C8.00633 6.34115 7.76746 6.4842 7.69029 6.72839C7.62171 6.73999 7.55473 6.75563 7.48967 6.77484C7.50763 5.73542 7.43815 5.33865 7.58261 4.68858C7.5918 4.64726 7.59276 4.60453 7.58544 4.56284C7.57811 4.52115 7.56265 4.48131 7.53992 4.4456C7.5172 4.40989 7.48766 4.379 7.453 4.35471C7.41834 4.33041 7.37923 4.31318 7.33791 4.30401C7.29659 4.2948 7.25386 4.29384 7.21216 4.30115C7.17047 4.30847 7.13062 4.32394 7.09491 4.34666C7.05919 4.36939 7.02831 4.39893 7.00402 4.4336C6.97972 4.46827 6.9625 4.50739 6.95334 4.54871C6.78357 5.31265 6.8671 5.76516 6.84501 7.14054C6.59042 7.38143 6.43462 7.70275 6.43462 8.05526C6.43462 8.70448 6.96266 9.24812 7.66417 9.37775V9.38111C7.66417 10.9556 8.52711 12.4431 9.94271 13.2071V13.7601L9.10835 14.3243C9.04243 14.3438 6.37639 15.1295 6.35577 15.1371C5.92415 15.2981 5.16914 15.7232 4.96199 16.7607L4.02261 21.4777C4.02144 21.4835 4.02043 21.4894 4.0196 21.4953C3.89534 22.3716 4.36554 23 5.32641 23H8.76056C8.93862 23 9.08291 22.8557 9.08291 22.6777C9.08291 22.4996 8.93862 22.3553 8.76056 22.3553H7.59911V19.3171C7.59912 19.2748 7.59078 19.2329 7.57459 19.1937C7.55839 19.1546 7.53464 19.1191 7.50471 19.0892C7.47478 19.0592 7.43924 19.0355 7.40013 19.0193C7.36101 19.0031 7.31909 18.9948 7.27676 18.9948C7.23443 18.9948 7.19251 19.0031 7.1534 19.0193C7.11428 19.0355 7.07875 19.0592 7.04881 19.0892C7.01888 19.1191 6.99513 19.1546 6.97894 19.1937C6.96274 19.2329 6.9544 19.2748 6.95441 19.3171V22.3553H5.32632C4.88645 22.3553 4.64875 22.2075 4.6454 21.7676C4.64359 21.5483 4.63401 21.7667 5.59398 16.8868C5.73831 16.1639 6.26326 15.862 6.57078 15.745L9.03977 15.0168L9.63072 16.6729C9.74673 16.9978 10.0772 17.1518 10.373 17.0903L11.3845 17.9778C11.6948 18.25 12.1649 18.2523 12.4779 17.9791L13.4961 17.0902C13.8001 17.1535 14.1256 16.9907 14.239 16.6728L14.8292 15.0187L17.2916 15.745C17.5991 15.862 18.124 16.1639 18.2683 16.8867C19.2444 21.8484 19.2257 21.5666 19.2162 21.8015C19.2008 22.1897 18.9973 22.3553 18.5361 22.3553H16.9195V19.3171C16.9195 19.139 16.7753 18.9948 16.5972 18.9948C16.4191 18.9948 16.2748 19.139 16.2748 19.3171V22.3553H10.2649C10.2226 22.3553 10.1806 22.3636 10.1415 22.3798C10.1024 22.396 10.0669 22.4198 10.0369 22.4497C10.007 22.4796 9.98326 22.5152 9.96707 22.5543C9.95087 22.5934 9.94254 22.6353 9.94254 22.6777C9.94254 22.72 9.95087 22.7619 9.96707 22.801C9.98326 22.8401 10.007 22.8757 10.0369 22.9056C10.0669 22.9355 10.1024 22.9593 10.1415 22.9755C10.1806 22.9917 10.2226 23 10.2649 23H18.5361C19.3325 23 19.8544 22.5618 19.8617 21.7726C19.8626 21.6473 19.8874 21.773 18.9006 16.7606ZM16.21 7.39427C16.9904 7.62622 16.9867 8.48581 16.21 8.71659V7.39427ZM7.66404 8.71659C6.88592 8.48534 6.88527 7.62579 7.66404 7.39427V8.71659ZM8.30874 9.38124V6.96063C8.31304 6.95986 10.6696 6.89081 13.7715 5.65004L13.7965 5.64033C13.8591 5.62001 14.0118 5.59204 14.1804 5.72326L15.5019 6.75215C15.5935 6.86408 15.5654 6.78756 15.5654 9.43744C15.5654 10.871 14.7376 12.113 13.5248 12.7018C13.4472 12.7165 12.166 13.393 10.6702 12.8332C9.26144 12.2965 8.30874 10.911 8.30874 9.38124ZM13.2753 13.4978V13.8617L12.4531 15.8266L11.4195 15.8266C11.2182 15.3472 10.5446 13.7431 10.5872 13.8441V13.4886C11.477 13.7899 12.4267 13.7758 13.2753 13.4978ZM10.2428 16.459C10.2338 16.4586 10.264 16.5204 9.62921 14.7503L10.1268 14.4139L10.8073 16.0404L10.2428 16.459ZM12.054 17.4934C12.0201 17.5229 11.9767 17.5391 11.9319 17.539C11.887 17.539 11.8436 17.5227 11.8098 17.4932L10.9499 16.7387L11.3124 16.4712H12.5612L12.92 16.7374L12.054 17.4934ZM13.6313 16.4577C13.6255 16.4635 13.6357 16.4623 13.0626 16.0404L13.7431 14.4139L14.2407 14.7503L13.6313 16.4577Z" fill="#202223"/>
</svg>
