<svg width="24" height="24" viewBox="0 0 24 24" fill="none" xmlns="http://www.w3.org/2000/svg">
<path d="M16.4 16.3V5.52C16.4 4.28788 16.4 3.67183 16.1602 3.20122C15.9493 2.78726 15.6127 2.45071 15.1988 2.23979C14.7282 2 14.1121 2 12.88 2H4.52C3.28788 2 2.67183 2 2.20122 2.23979C1.78726 2.45071 1.45071 2.78726 1.23979 3.20122C1 3.67183 1 4.28788 1 5.52V12.78C1 14.0121 1 14.6282 1.23979 15.0988C1.45071 15.5127 1.78726 15.8493 2.20122 16.0602C2.67183 16.3 3.28788 16.3 4.52 16.3H16.4ZM16.4 16.3H21.24C21.8561 16.3 22.1641 16.3 22.3994 16.1801C22.6064 16.0746 22.7746 15.9064 22.8801 15.6994C23 15.4641 23 15.1561 23 14.54V11.529C23 11.26 23 11.1254 22.9696 10.9988C22.9427 10.8866 22.8982 10.7793 22.8379 10.6809C22.7699 10.5699 22.6748 10.4748 22.4845 10.2845L20.2155 8.01549C20.0252 7.82525 19.9301 7.73012 19.8191 7.6621C19.7207 7.60178 19.6134 7.55734 19.5012 7.53039C19.3746 7.5 19.24 7.5 18.971 7.5H16.4M8.7 19.05C8.7 20.5688 7.46878 21.8 5.95 21.8C4.43122 21.8 3.2 20.5688 3.2 19.05C3.2 17.5312 4.43122 16.3 5.95 16.3C7.46878 16.3 8.7 17.5312 8.7 19.05ZM20.8 19.05C20.8 20.5688 19.5688 21.8 18.05 21.8C16.5312 21.8 15.3 20.5688 15.3 19.05C15.3 17.5312 16.5312 16.3 18.05 16.3C19.5688 16.3 20.8 17.5312 20.8 19.05Z" stroke="#202223" stroke-linecap="round" stroke-linejoin="round"/>
</svg>
