<svg width="512" height="512" viewBox="0 0 512 512" fill="none" xmlns="http://www.w3.org/2000/svg">
<path fill-rule="evenodd" clip-rule="evenodd" d="M480.747 301.845C483.755 287.04 485.334 271.701 485.334 256C485.334 129.429 382.571 26.6667 256 26.6667C129.43 26.6667 26.667 129.429 26.667 256C26.667 382.571 129.43 485.333 256 485.333C271.702 485.333 287.04 483.755 301.846 480.747C305.964 479.863 309.567 477.391 311.874 473.867C314.18 470.343 315.005 466.052 314.168 461.924C313.331 457.797 310.901 454.165 307.404 451.818C303.907 449.471 299.625 448.597 295.488 449.387C282.49 452.015 269.262 453.337 256 453.333C147.094 453.333 58.667 364.907 58.667 256C58.667 147.093 147.094 58.6667 256 58.6667C364.907 58.6667 453.334 147.093 453.334 256C453.334 269.525 451.968 282.731 449.387 295.488C448.598 299.625 449.471 303.907 451.818 307.404C454.166 310.901 457.797 313.331 461.925 314.168C466.052 315.005 470.343 314.18 473.867 311.873C477.391 309.566 479.863 305.963 480.747 301.845Z" fill="black"/>
<path fill-rule="evenodd" clip-rule="evenodd" d="M250.667 138.667V238.699L170.027 319.36C168.542 320.845 167.364 322.608 166.561 324.548C165.757 326.488 165.344 328.567 165.344 330.667C165.344 332.767 165.757 334.846 166.561 336.786C167.364 338.726 168.542 340.489 170.027 341.973C171.512 343.458 173.275 344.636 175.215 345.44C177.155 346.243 179.234 346.657 181.334 346.657C183.434 346.657 185.513 346.243 187.453 345.44C189.393 344.636 191.156 343.458 192.64 341.973L277.974 256.64C279.463 255.158 280.644 253.396 281.449 251.455C282.255 249.515 282.669 247.434 282.667 245.333V138.667C282.667 134.423 280.981 130.354 277.981 127.353C274.98 124.352 270.911 122.667 266.667 122.667C262.424 122.667 258.354 124.352 255.353 127.353C252.353 130.354 250.667 134.423 250.667 138.667ZM362.667 282.667C318.507 282.667 282.667 318.507 282.667 362.667C282.667 406.827 318.507 442.667 362.667 442.667C406.827 442.667 442.667 406.827 442.667 362.667C442.667 318.507 406.827 282.667 362.667 282.667ZM362.667 314.667C375.403 314.672 387.615 319.737 396.617 328.747C405.619 337.757 410.673 349.973 410.667 362.709C410.661 375.445 405.597 387.658 396.587 396.659C387.577 405.661 375.36 410.715 362.624 410.709C349.888 410.704 337.676 405.639 328.674 396.629C319.673 387.619 314.619 375.403 314.624 362.667C314.63 349.931 319.695 337.719 328.705 328.717C337.714 319.715 349.931 314.661 362.667 314.667Z" fill="black"/>
<path fill-rule="evenodd" clip-rule="evenodd" d="M480.641 458.027L427.307 404.693C424.309 401.695 420.242 400.01 416.001 400.01C411.76 400.01 407.693 401.695 404.694 404.693C401.695 407.692 400.011 411.759 400.011 416C400.011 420.241 401.695 424.308 404.694 427.307L458.027 480.64C461.026 483.639 465.093 485.323 469.334 485.323C473.575 485.323 477.642 483.639 480.641 480.64C483.64 477.641 485.324 473.574 485.324 469.333C485.324 465.093 483.64 461.025 480.641 458.027Z" fill="black"/>
</svg>
