<svg width="21" height="15" viewBox="0 0 21 15" fill="none" xmlns="http://www.w3.org/2000/svg">
<path d="M9.25817 1.28454C6.95244 1.55858 4.81503 2.62342 2.54453 4.63175C1.74985 5.33251 0.442357 6.74577 0.105696 7.27036C-0.0352319 7.48959 -0.0352319 7.79495 0.105696 8.01418C0.28577 8.29605 1.04521 9.1769 1.58544 9.72889C3.51536 11.7176 5.66451 13.1113 7.69231 13.6907C8.57311 13.9413 9.01938 14 10.002 14C10.9845 14 11.4308 13.9413 12.3116 13.6907C14.6878 13.0095 17.2989 11.1578 19.3815 8.66796C19.953 7.98678 20 7.90457 20 7.64227C20 7.37998 19.953 7.29776 19.3815 6.61658C17.3106 4.1463 14.7074 2.29066 12.3508 1.60556C11.56 1.37459 11.0354 1.3002 10.1781 1.28454C9.7475 1.2728 9.33255 1.27671 9.25817 1.28454ZM10.961 2.65083C12.8049 2.92878 14.8131 4.0132 16.743 5.7788C17.3341 6.31514 18.4968 7.55614 18.4968 7.64619C18.4968 7.65793 18.3637 7.82627 18.1953 8.01418C15.917 10.6215 13.3255 12.2775 10.961 12.6337C10.46 12.7081 9.54394 12.7081 9.04287 12.6337C7.33999 12.3753 5.52359 11.4475 3.71893 9.9168C3.06518 9.36481 1.50714 7.75972 1.50714 7.64227C1.50714 7.62661 1.64024 7.45827 1.80857 7.27036C4.07125 4.68264 6.66275 3.01883 9.00763 2.65474C9.48522 2.58036 10.4756 2.58036 10.961 2.65083Z" fill="#808080"/>
<path d="M9.45962 3.70673C7.7635 4.0162 6.55703 5.12089 6.14573 6.73874C6.03997 7.15398 6.03997 8.12548 6.14573 8.54072C6.52569 10.0293 7.61857 11.1222 9.10708 11.5022C9.5223 11.608 10.4937 11.608 10.909 11.5022C12.3975 11.1222 13.4903 10.0293 13.8703 8.54072C13.9291 8.31351 13.9447 8.10981 13.9447 7.63973C13.9447 7.16965 13.9291 6.96595 13.8703 6.73874C13.4982 5.26975 12.4366 4.19248 10.9677 3.79291C10.7014 3.71848 9.70248 3.66364 9.45962 3.70673ZM10.6348 5.0778C11.3673 5.24232 12.0371 5.779 12.3779 6.48412C12.5816 6.90327 12.6442 7.22449 12.6247 7.75725C12.6051 8.26259 12.5071 8.60339 12.2721 9.00296C12.1076 9.28501 11.6532 9.73942 11.3712 9.90395C10.5447 10.3897 9.47137 10.3897 8.64486 9.90395C8.36282 9.73942 7.90844 9.28501 7.74392 9.00296C7.25819 8.1764 7.25819 7.10306 7.74392 6.2765C7.90844 5.99445 8.36282 5.54004 8.64486 5.37551C9.23634 5.02687 9.92968 4.9211 10.6348 5.0778Z" fill="#808080"/>
<path d="M20 1L1 14" stroke="#808080" stroke-width="1.3"/>
</svg>
