<svg width="24" height="24" viewBox="0 0 24 24" fill="none" xmlns="http://www.w3.org/2000/svg">
<path d="M13.5199 3.33765C12.27 2.08797 10.2444 2.08797 8.99421 3.33765L3.33765 8.99445C2.08797 10.2444 2.08797 12.27 3.33765 13.5201C4.58733 14.7693 6.61341 14.7693 7.86309 13.5201L13.5199 7.86309C14.7691 6.61341 14.7691 4.58709 13.5199 3.33765ZM6.73173 12.3888C6.10773 13.0123 5.09301 13.013 4.46877 12.3888C3.84453 11.7645 3.84477 10.7498 4.46877 10.1253L6.73125 7.86285L8.99445 10.1258L6.73173 12.3888ZM12.3888 6.73173L10.1258 8.99469L7.86285 6.73149L10.1253 4.46877C10.7496 3.84453 11.7643 3.84453 12.3888 4.46877C13.013 5.09325 13.013 6.10701 12.3888 6.73173Z" fill="#313436"/>
<path d="M16.8 8.7998C14.1485 8.7998 12 10.9483 12 13.5998C12 16.2513 14.1485 18.3998 16.8 18.3998C19.4515 18.3998 21.6 16.2513 21.6 13.5998C21.6 10.9483 19.4515 8.7998 16.8 8.7998ZM13.6001 13.5998C13.6001 12.1108 14.622 10.8705 15.9991 10.5132V16.6867C14.622 16.3296 13.6001 15.0888 13.6001 13.5998ZM17.5992 16.6864V10.5127C18.9773 10.8693 19.9999 12.1099 19.9999 13.5998C19.9999 15.0897 18.9773 16.3303 17.5992 16.6864Z" fill="#313436"/>
<path d="M8.79953 15.2002C7.03193 15.2002 5.59961 16.6313 5.59961 18.4001C5.59937 20.1672 7.03193 21.6 8.79953 21.6C10.5671 21.6 11.9994 20.1672 11.9994 18.4001C11.9994 16.6313 10.5671 15.2002 8.79953 15.2002ZM8.79953 20.0002C7.91585 20.0002 7.19945 19.2838 7.19945 18.4001C7.19945 17.5157 7.91585 16.8 8.79953 16.8C9.68321 16.8 10.3996 17.5157 10.3996 18.4001C10.3994 19.2838 9.68321 20.0002 8.79953 20.0002Z" fill="#313436"/>
</svg>
