<svg width="20" height="20" viewBox="0 0 20 20" fill="none" xmlns="http://www.w3.org/2000/svg">
<path d="M2.5 7.65149V15.0757C2.5 15.4374 2.64367 15.7842 2.8994 16.04C3.15513 16.2957 3.50198 16.4394 3.86364 16.4394H16.1364C16.498 16.4394 16.8449 16.2957 17.1006 16.04C17.3563 15.7842 17.5 15.4374 17.5 15.0757V7.65149" stroke="#74808B" stroke-miterlimit="10" stroke-linecap="square"/>
<path d="M17.5 7.57572V5.53026C17.5 5.1686 17.3563 4.82176 17.1006 4.56603C16.8449 4.31029 16.498 4.16663 16.1364 4.16663H3.86364C3.50198 4.16663 3.15513 4.31029 2.8994 4.56603C2.64367 4.82176 2.5 5.1686 2.5 5.53026V7.57572L10 10.8333L17.5 7.57572Z" stroke="#74808B" stroke-miterlimit="10" stroke-linecap="square"/>
</svg>
