<svg width="14" height="13" viewBox="0 0 14 13" fill="none" xmlns="http://www.w3.org/2000/svg">
<path fill-rule="evenodd" clip-rule="evenodd" d="M6.99961 12.8C3.46499 12.8 0.599609 9.93462 0.599609 6.4C0.599609 2.86538 3.46499 0 6.99961 0C10.5342 0 13.3996 2.86538 13.3996 6.4C13.3996 9.93462 10.5342 12.8 6.99961 12.8ZM6.19961 5.59968C6.19961 6.04151 6.55778 6.39968 6.99961 6.39968C7.44144 6.39968 7.79961 6.04151 7.79961 5.59968V3.99968C7.79961 3.55785 7.44144 3.19968 6.99961 3.19968C6.55778 3.19968 6.19961 3.55785 6.19961 3.99968V5.59968ZM6.19961 8.79968C6.19961 9.24151 6.55778 9.59968 6.99961 9.59968C7.44144 9.59968 7.79961 9.24151 7.79961 8.79968C7.79961 8.35785 7.44144 7.99968 6.99961 7.99968C6.55778 7.99968 6.19961 8.35785 6.19961 8.79968Z" fill="#D72C0D"/>
</svg>
