<svg width="20" height="13" viewBox="0 0 20 13" fill="none" xmlns="http://www.w3.org/2000/svg">
<path d="M9.25817 0.284544C6.95244 0.558584 4.81503 1.62342 2.54453 3.63175C1.74985 4.33251 0.442357 5.74577 0.105696 6.27036C-0.0352319 6.48959 -0.0352319 6.79495 0.105696 7.01418C0.28577 7.29605 1.04521 8.1769 1.58544 8.72889C3.51536 10.7176 5.66451 12.1113 7.69231 12.6907C8.57311 12.9413 9.01938 13 10.002 13C10.9845 13 11.4308 12.9413 12.3116 12.6907C14.6878 12.0095 17.2989 10.1578 19.3815 7.66796C19.953 6.98678 20 6.90457 20 6.64227C20 6.37998 19.953 6.29776 19.3815 5.61658C17.3106 3.1463 14.7074 1.29066 12.3508 0.605562C11.56 0.374585 11.0354 0.300203 10.1781 0.284544C9.7475 0.272799 9.33255 0.276714 9.25817 0.284544ZM10.961 1.65083C12.8049 1.92878 14.8131 3.0132 16.743 4.7788C17.3341 5.31514 18.4968 6.55614 18.4968 6.64619C18.4968 6.65793 18.3637 6.82627 18.1953 7.01418C15.917 9.62148 13.3255 11.2775 10.961 11.6337C10.46 11.7081 9.54394 11.7081 9.04287 11.6337C7.33999 11.3753 5.52359 10.4475 3.71893 8.9168C3.06518 8.36481 1.50714 6.75972 1.50714 6.64227C1.50714 6.62661 1.64024 6.45827 1.80857 6.27036C4.07125 3.68264 6.66275 2.01883 9.00763 1.65474C9.48522 1.58036 10.4756 1.58036 10.961 1.65083Z" fill="#808080"/>
<path d="M9.45748 2.7117C7.76243 3.02097 6.55672 4.12496 6.14568 5.7418C6.03998 6.15677 6.03998 7.12766 6.14568 7.54263C6.5254 9.03028 7.61759 10.1225 9.10516 10.5023C9.52012 10.608 10.491 10.608 10.9059 10.5023C12.3935 10.1225 13.4857 9.03028 13.8654 7.54263C13.9241 7.31557 13.9398 7.112 13.9398 6.64222C13.9398 6.17243 13.9241 5.96886 13.8654 5.7418C13.4935 4.27373 12.4326 3.19714 10.9646 2.79783C10.6984 2.72344 9.70019 2.66864 9.45748 2.7117ZM10.6319 4.0819C11.3639 4.24632 12.0333 4.78266 12.3739 5.48733C12.5775 5.90622 12.6401 6.22724 12.6205 6.75966C12.601 7.26468 12.5031 7.60527 12.2682 8.00459C12.1038 8.28646 11.6497 8.74058 11.3678 8.90501C10.5418 9.39045 9.46922 9.39045 8.64323 8.90501C8.36138 8.74058 7.90728 8.28646 7.74286 8.00459C7.25744 7.17855 7.25744 6.10588 7.74286 5.27985C7.90728 4.99798 8.36138 4.54385 8.64323 4.37943C9.23435 4.03101 9.92724 3.92531 10.6319 4.0819Z" fill="#808080"/>
</svg>
