<svg width="18" height="19" viewBox="0 0 18 19" fill="none" xmlns="http://www.w3.org/2000/svg">
<path d="M16.9999 4.19993V6.13588C16.9999 7.39985 16.1998 8.19984 14.9358 8.19984H12.1997V2.60796C12.1997 1.71998 12.9277 1 13.8158 1C14.6878 1.008 15.4878 1.35999 16.0638 1.93598C16.6399 2.51997 16.9999 3.31995 16.9999 4.19993Z" stroke="#5556A6" stroke-width="1.20001" stroke-miterlimit="10" stroke-linecap="round" stroke-linejoin="round"/>
<path d="M1 4.99991V16.1997C1 16.8636 1.75203 17.2396 2.28004 16.8396L3.64809 15.8157C3.9681 15.5757 4.41612 15.6077 4.70413 15.8957L6.03217 17.2316C6.34418 17.5436 6.8562 17.5436 7.16821 17.2316L8.51226 15.8877C8.79227 15.6077 9.24028 15.5757 9.55229 15.8157L10.9203 16.8396C11.4484 17.2316 12.2004 16.8556 12.2004 16.1997V2.59996C12.2004 1.71998 12.9204 1 13.8004 1H5.00014H4.20011C1.80003 1 1 2.43197 1 4.19993V4.99991Z" stroke="#5556A6" stroke-width="1.20001" stroke-miterlimit="10" stroke-linecap="round" stroke-linejoin="round"/>
<path opacity="0.4" d="M6.60107 9.80859H9.00116" stroke="#5556A6" stroke-width="1.20001" stroke-linecap="round" stroke-linejoin="round"/>
<path opacity="0.4" d="M6.60107 6.60938H9.00116" stroke="#5556A6" stroke-width="1.20001" stroke-linecap="round" stroke-linejoin="round"/>
<path opacity="0.4" d="M4.1958 9.79688H4.20479" stroke="#5556A6" stroke-width="1.60001" stroke-linecap="round" stroke-linejoin="round"/>
<path opacity="0.4" d="M4.19482 6.60156H4.2038" stroke="#5556A6" stroke-width="1.60001" stroke-linecap="round" stroke-linejoin="round"/>
</svg>
