<svg width="17" height="17" viewBox="0 0 17 17" fill="none" xmlns="http://www.w3.org/2000/svg">
<g clip-path="url(#clip0_3118_30292)">
<path d="M4.95369 3.43735C5.48474 3.43735 5.91539 3.00671 5.91539 2.47539V0.961695C5.91539 0.430644 5.48474 0 4.95369 0C4.42234 0 3.9917 0.430644 3.9917 0.961695V2.47539C3.9917 3.00674 4.42234 3.43735 4.95369 3.43735Z" fill="#5556A6"/>
<path d="M12.0469 3.43735C12.578 3.43735 13.0086 3.00671 13.0086 2.47539V0.961695C13.0087 0.430644 12.578 0 12.0469 0C11.5156 0 11.085 0.430644 11.085 0.961695V2.47539C11.085 3.00674 11.5156 3.43735 12.0469 3.43735Z" fill="#5556A6"/>
<path d="M14.4488 1.37305H13.8537V2.47758C13.8537 3.47424 13.043 4.28486 12.0466 4.28486C11.05 4.28486 10.2394 3.47424 10.2394 2.47758V1.37305H6.76067V2.47758C6.76067 3.47424 5.95005 4.28486 4.95369 4.28486C3.957 4.28486 3.14638 3.47424 3.14638 2.47758V1.37305H2.55121C1.27196 1.37305 0.234863 2.41015 0.234863 3.6894V14.6858C0.234863 15.9651 1.27196 17.0022 2.55121 17.0022H14.4488C15.7281 17.0022 16.7652 15.9651 16.7652 14.6858V3.6894C16.7652 2.41015 15.728 1.37305 14.4488 1.37305ZM15.6381 14.6858C15.6381 15.3415 15.1045 15.8751 14.4488 15.8751H2.55121C1.89548 15.8751 1.36194 15.3415 1.36194 14.6858V5.15326H15.6381V14.6858Z" fill="#5556A6"/>
<path d="M7.98263 12.5312H6.09912V14.4148H7.98263V12.5312Z" fill="#5556A6"/>
<path d="M7.98263 9.61523H6.09912V11.4987H7.98263V9.61523Z" fill="#5556A6"/>
<path d="M5.0629 12.5312H3.17969V14.4148H5.0629V12.5312Z" fill="#5556A6"/>
<path d="M5.0629 9.61523H3.17969V11.4987H5.0629V9.61523Z" fill="#5556A6"/>
<path d="M13.8202 6.69727H11.937V8.58078H13.8202V6.69727Z" fill="#5556A6"/>
<path d="M10.9018 6.69727H9.01807V8.58078H10.9018V6.69727Z" fill="#5556A6"/>
<path d="M10.9018 9.61523H9.01807V11.4987H10.9018V9.61523Z" fill="#5556A6"/>
<path d="M13.8202 12.5312H11.937V14.4148H13.8202V12.5312Z" fill="#5556A6"/>
<path d="M13.8202 9.61523H11.937V11.4987H13.8202V9.61523Z" fill="#5556A6"/>
<path d="M10.9018 12.5312H9.01807V14.4148H10.9018V12.5312Z" fill="#5556A6"/>
<path d="M7.98263 6.69727H6.09912V8.58078H7.98263V6.69727Z" fill="#5556A6"/>
<path d="M5.0629 6.69727H3.17969V8.58078H5.0629V6.69727Z" fill="#5556A6"/>
</g>
<defs>
<clipPath id="clip0_3118_30292">
<rect width="17" height="17" fill="white"/>
</clipPath>
</defs>
</svg>
