<svg width="15" height="18" viewBox="0 0 15 18" fill="none" xmlns="http://www.w3.org/2000/svg">
<path fill-rule="evenodd" clip-rule="evenodd" d="M5.19898 0.0324486C4.77235 0.116217 4.34085 0.450956 4.15925 0.839037C4.03634 1.1017 3.99295 1.32712 3.99295 1.70307V1.99793L2.36468 2.00748C0.779559 2.01677 0.732297 2.01894 0.581127 2.08881C0.38216 2.1808 0.164723 2.3985 0.0740739 2.59657C-0.0246913 2.81227 -0.0246913 3.19243 0.0740739 3.40813C0.164723 3.6062 0.38216 3.8239 0.581127 3.91589L0.736405 3.98766H7.5H14.2636L14.4189 3.91589C14.6178 3.8239 14.8353 3.6062 14.9259 3.40813C15.0247 3.19243 15.0247 2.81227 14.9259 2.59657C14.8353 2.3985 14.6178 2.1808 14.4189 2.08881C14.2677 2.01894 14.2204 2.01677 12.6353 2.00748L11.007 1.99793V1.70307C11.007 1.54091 10.9917 1.32735 10.9729 1.22849C10.8592 0.628614 10.3747 0.144173 9.77487 0.0304112C9.55453 -0.0113728 5.41277 -0.00953574 5.19898 0.0324486ZM9.7387 1.06556C9.9381 1.1673 10.005 1.32635 10.005 1.6984V2.00034H7.5H4.99496V1.6984C4.99496 1.33229 5.0622 1.16857 5.25419 1.0672C5.37463 1.00363 5.45432 1.00123 7.49299 0.999793C9.54721 0.998357 9.61061 1.00023 9.7387 1.06556ZM1.03855 5.14833C1.04786 5.22642 1.24292 7.57487 1.47205 10.3672C1.70114 13.1594 1.90469 15.5718 1.92436 15.7279C2.00726 16.3854 2.4569 16.9035 3.07016 17.0481C3.37604 17.1202 11.624 17.1202 11.9298 17.0481C12.5431 16.9035 12.9927 16.3854 13.0756 15.7279C13.0953 15.5718 13.2989 13.1594 13.528 10.3672C13.7571 7.57487 13.9521 5.22642 13.9615 5.14833L13.9784 5.00638H7.5H1.02158L1.03855 5.14833ZM4.78618 6.10262C4.84136 6.14193 4.90956 6.22322 4.93772 6.28328C4.97773 6.36865 5.04503 7.29685 5.2458 10.5326L5.50272 14.6727L5.43355 14.815C5.30843 15.0725 5.00201 15.163 4.7474 15.0176C4.49466 14.8733 4.52586 15.1482 4.24269 10.5687L3.98667 6.42814L4.05551 6.28642C4.18454 6.02082 4.54426 5.93034 4.78618 6.10262ZM7.73467 6.07563C7.81954 6.11892 7.89048 6.18986 7.93377 6.27473C8.00007 6.40472 8.00101 6.46321 8.00101 10.5509C8.00101 14.6385 8.00007 14.697 7.93377 14.827C7.85815 14.9752 7.66573 15.0933 7.5 15.0933C7.33427 15.0933 7.14185 14.9752 7.06623 14.827C6.99993 14.697 6.99899 14.6385 6.99899 10.5509C6.99899 6.46488 6.99993 6.40469 7.06616 6.27486C7.18961 6.03291 7.48083 5.94613 7.73467 6.07563ZM10.7422 6.0764C10.8339 6.12319 10.897 6.18862 10.9444 6.28625L11.0133 6.42814L10.7573 10.5687C10.4741 15.1482 10.5053 14.8733 10.2526 15.0176C9.99795 15.163 9.69157 15.0725 9.56642 14.815L9.49725 14.6726L9.75086 10.5492C9.98804 6.6933 10.0091 6.41681 10.0753 6.28555C10.1245 6.18822 10.1885 6.12429 10.2844 6.07683C10.4587 5.99056 10.5737 5.99042 10.7422 6.0764Z" fill="#D72C0D"/>
</svg>
